<svg width="256" height="256" viewBox="0 0 256 256" xmlns="http://www.w3.org/2000/svg">
  <!-- Background -->
  <rect width="256" height="256" fill="#3B82F6" rx="32"/>
  
  <!-- White Container -->
  <rect x="32" y="64" width="192" height="128" fill="white" rx="16"/>
  
  <!-- Chart Bars Container -->
  <rect x="48" y="80" width="160" height="96" fill="#F8FAFC" rx="8"/>
  
  <!-- Animated Chart Bars -->
  <rect x="60" y="140" width="12" height="20" fill="#1F2937" rx="2"/>
  <rect x="78" y="120" width="12" height="40" fill="#3B82F6" rx="2"/>
  <rect x="96" y="130" width="12" height="30" fill="#1F2937" rx="2"/>
  <rect x="114" y="110" width="12" height="50" fill="#3B82F6" rx="2"/>
  <rect x="132" y="125" width="12" height="35" fill="#1F2937" rx="2"/>
  <rect x="150" y="115" width="12" height="45" fill="#3B82F6" rx="2"/>
  <rect x="168" y="135" width="12" height="25" fill="#1F2937" rx="2"/>
  <rect x="186" y="120" width="12" height="40" fill="#3B82F6" rx="2"/>
  
  <!-- Currency Symbol Circle -->
  <circle cx="128" cy="48" r="20" fill="white" stroke="#3B82F6" stroke-width="3"/>
  <text x="128" y="56" text-anchor="middle" fill="#3B82F6" font-family="Arial, sans-serif" font-size="20" font-weight="bold">$</text>
  
  <!-- Bottom Info Strip -->
  <rect x="48" y="200" width="160" height="24" fill="#1F2937" rx="8"/>
  <rect x="56" y="206" width="48" height="4" fill="#3B82F6" rx="2"/>
  <rect x="112" y="206" width="32" height="4" fill="white" rx="2"/>
  <rect x="152" y="206" width="48" height="4" fill="#3B82F6" rx="2"/>
</svg>